<?xml version="1.0" encoding="UTF-8" standalone="no"?>
<svg
   xmlns:dc="http://purl.org/dc/elements/1.1/"
   xmlns:cc="http://creativecommons.org/ns#"
   xmlns:rdf="http://www.w3.org/1999/02/22-rdf-syntax-ns#"
   xmlns:svg="http://www.w3.org/2000/svg"
   xmlns="http://www.w3.org/2000/svg"
   xmlns:sodipodi="http://sodipodi.sourceforge.net/DTD/sodipodi-0.dtd"
   xmlns:inkscape="http://www.inkscape.org/namespaces/inkscape"
   class="svg-icon"
   viewBox="0 0 32 32"
   version="1.1"
   id="svg4"
   sodipodi:docname="otp.svg"
   width="32"
   height="32"
   inkscape:version="1.0.1 (3bc2e813f5, 2020-09-07)">
  <metadata
     id="metadata10">
    <rdf:RDF>
      <cc:Work
         rdf:about="">
        <dc:format>image/svg+xml</dc:format>
        <dc:type
           rdf:resource="http://purl.org/dc/dcmitype/StillImage" />
        <dc:title></dc:title>
      </cc:Work>
    </rdf:RDF>
  </metadata>
  <defs
     id="defs8" />
  <sodipodi:namedview
     pagecolor="#ffffff"
     bordercolor="#666666"
     borderopacity="1"
     objecttolerance="10"
     gridtolerance="10"
     guidetolerance="10"
     inkscape:pageopacity="0"
     inkscape:pageshadow="2"
     inkscape:window-width="1366"
     inkscape:window-height="704"
     id="namedview6"
     showgrid="false"
     inkscape:zoom="6.975"
     inkscape:cx="22.044691"
     inkscape:cy="14.888868"
     inkscape:window-x="0"
     inkscape:window-y="27"
     inkscape:window-maximized="1"
     inkscape:current-layer="svg4" />
  <path
     d="M 29.675016,3.4655453 H 2.3214115 c -0.4179395,0 -0.7590782,0.3411386 -0.7590782,0.7608642 V 22.462147 c 0,0.417939 0.3411387,0.760864 0.7590782,0.760864 h 6.0797696 v 4.559827 c 0,0.709068 0.8573118,0.976978 1.294898,0.539392 l 5.1599459,-5.097433 h 14.820777 c 0.41794,0 0.760865,-0.341139 0.760865,-0.760864 V 4.2264095 C 30.435881,3.80847 30.094742,3.4655453 29.675016,3.4655453 M 28.915938,21.701282 H 14.543463 c -0.201826,0 -0.391149,0.08037 -0.53582,0.221473 l -4.0883056,4.040081 v -3.500689 c 0,-0.416154 -0.3411387,-0.760865 -0.7590782,-0.760865 H 3.0804897 V 4.9854877 H 28.915938 Z M 15.999107,11.065258 c -1.46636,0 -2.659453,1.193092 -2.659453,2.659452 0,1.466361 1.193093,2.659453 2.659453,2.659453 1.46636,0 2.657667,-1.193092 2.657667,-2.659453 0,-1.46636 -1.191307,-2.659452 -2.657667,-2.659452 m 0,3.798963 c -0.628695,0 -1.13951,-0.514387 -1.13951,-1.139511 0,-0.626909 0.512601,-1.13951 1.13951,-1.13951 0.626909,0 1.13951,0.512601 1.13951,1.13951 0,0.62691 -0.512601,1.139511 -1.13951,1.139511 m 7.597926,-3.798963 c -1.466361,0 -2.659453,1.193092 -2.659453,2.659452 0,1.466361 1.193092,2.659453 2.659453,2.659453 1.46636,0 2.659453,-1.193092 2.659453,-2.659453 0,-1.46636 -1.193093,-2.659452 -2.659453,-2.659452 m 0,3.798963 c -0.626909,0 -1.13951,-0.514387 -1.13951,-1.139511 0,-0.626909 0.512601,-1.13951 1.13951,-1.13951 0.628695,0 1.141296,0.512601 1.141296,1.13951 0,0.62691 -0.514387,1.139511 -1.141296,1.139511 M 8.4011811,11.065258 c -1.4663604,0 -2.6594527,1.193092 -2.6594527,2.659452 0,1.466361 1.1930923,2.659453 2.6594527,2.659453 1.4663604,0 2.6594529,-1.193092 2.6594529,-2.659453 -0.0018,-1.46636 -1.1948786,-2.659452 -2.6594529,-2.659452 m 0,3.798963 c -0.6269093,0 -1.1395103,-0.514387 -1.1395103,-1.139511 0,-0.626909 0.512601,-1.13951 1.1395103,-1.13951 0.6269092,0 1.1395102,0.512601 1.1395102,1.13951 0,0.62691 -0.514387,1.139511 -1.1395102,1.139511"
     id="path2"
     style="stroke-width:1.78607" />
</svg>
